name C:\Users\u0101727\Documents\MyRepositories\upper-imu-dc\Results\main_tracking\Case_95\kinematics.mot
datacolumns 43
datarows 4
range 4.50000000 4.56000000
endheader 
time	clav_prot	clav_elev	scapula_abduction	scapula_elevation	scapula_upward_rot	scapula_winging	plane_elv	shoulder_elv	axial_rot	TrapeziusScapula_M/activation	TrapeziusScapula_S/activation	TrapeziusScapula_I/activation	TrapeziusClavicle_S/activation	SerratusAnterior_I/activation	SerratusAnterior_M/activation	SerratusAnterior_S/activation	Rhomboideus_S/activation	Rhomboideus_I/activation	LevatorScapulae/activation	Coracobrachialis/activation	DeltoideusClavicle_A/activation	DeltoideusScapula_P/activation	DeltoideusScapula_M/activation	LatissimusDorsi_S/activation	LatissimusDorsi_M/activation	LatissimusDorsi_I/activation	PectoralisMajorClavicle_S/activation	PectoralisMajorThorax_I/activation	PectoralisMajorThorax_M/activation	TeresMajor/activation	Infraspinatus_I/activation	Infraspinatus_S/activation	PectoralisMinor/activation	TeresMinor/activation	Subscapularis_S/activation	Subscapularis_M/activation	Subscapularis_I/activation	Supraspinatus_P/activation	Supraspinatus_A/activation	TRIlong/activation	BIC_long/activation	BIC_brevis/activation	
          4.50000000	        -29.97557662	         -1.33308948	        -16.13967194	         -5.75355431	         28.06917528	          0.15489983	         -2.44495522	         72.72612728	          2.24711962	          0.01005224	          0.07584419	          0.01000109	          0.02922990	          0.05397630	          0.08932548	          0.01000409	          0.01101525	          0.01003732	          0.02500851	          0.02678804	          0.09064257	          0.01000009	          0.11342820	          0.01000092	          0.01000021	          0.01000050	          0.02557863	          0.01000052	          0.01000508	          0.01000010	          0.01168667	          0.01353596	          0.01000052	          0.01000170	          0.01274207	          0.01000514	          0.01000143	          0.03488733	          0.06989351	          0.01000001	          0.06780615	          0.02410416	
          4.52000000	        -30.37699434	         -1.16407704	        -16.51759493	         -5.75057176	         28.54974875	         -0.09313799	         -1.72453968	         73.06785753	          2.33639054	          0.01005750	          0.07626053	          0.01000110	          0.02905795	          0.05426763	          0.08935498	          0.01000415	          0.01089381	          0.01003387	          0.02443114	          0.02754810	          0.09176928	          0.01000009	          0.11313228	          0.01000092	          0.01000021	          0.01000045	          0.02568773	          0.01000052	          0.01000626	          0.01000011	          0.01160855	          0.01351888	          0.01000051	          0.01000167	          0.01319277	          0.01000558	          0.01000145	          0.03533501	          0.07068922	          0.01000000	          0.06811611	          0.02474467	
          4.54000000	        -30.79313544	         -0.99857117	        -16.89872649	         -5.75504170	         29.05455045	         -0.35266439	         -0.99224404	         73.38513878	          2.39312477	          0.01006277	          0.07667668	          0.01000112	          0.02885031	          0.05447816	          0.08925699	          0.01000424	          0.01071672	          0.01003137	          0.02385287	          0.02860497	          0.09316317	          0.01000007	          0.11269015	          0.01000091	          0.01000021	          0.01000042	          0.02596120	          0.01000053	          0.01000779	          0.01000011	          0.01159863	          0.01329178	          0.01000051	          0.01000165	          0.01345129	          0.01000602	          0.01000145	          0.03555942	          0.07135565	          0.01000000	          0.06817633	          0.02551029	
          4.56000000	        -31.22275382	         -0.83637392	        -17.28316316	         -5.76587126	         29.58000810	         -0.62306954	         -0.24805849	         73.67841174	          2.42028800	          0.01006071	          0.07702313	          0.01000114	          0.02867521	          0.05462371	          0.08917106	          0.01000445	          0.01060644	          0.01003027	          0.02325549	          0.02975801	          0.09469103	          0.01000004	          0.11213073	          0.01000091	          0.01000021	          0.01000040	          0.02632963	          0.01000056	          0.01001140	          0.01000011	          0.01150366	          0.01302313	          0.01000053	          0.01000164	          0.01383897	          0.01000683	          0.01000145	          0.03591575	          0.07223290	          0.01000000	          0.06843609	          0.02637926	
